<?xml version="1.0" encoding="UTF-8" standalone="no"?>
<!-- Created with Inkscape (http://www.inkscape.org/) -->

<svg xmlns:dc="http://purl.org/dc/elements/1.1/" xmlns:cc="http://creativecommons.org/ns#" xmlns:rdf="http://www.w3.org/1999/02/22-rdf-syntax-ns#" xmlns:svg="http://www.w3.org/2000/svg" xmlns="http://www.w3.org/2000/svg" xmlns:sodipodi="http://sodipodi.sourceforge.net/DTD/sodipodi-0.dtd" xmlns:inkscape="http://www.inkscape.org/namespaces/inkscape" id="svg2" sodipodi:docname="20221205_Lotus Logo.svg" inkscape:export-filename="C:\Documents and Settings\Woofer\My Documents\Freelancing\Freelancer\Contests\Logos\Hometown Teas\Hometown Teas_01.png" viewBox="0 0 556.93642 229.79988" inkscape:export-xdpi="90" version="1.1" inkscape:export-ydpi="90" inkscape:version="0.92.5 (2060ec1f9f, 2020-04-08)" width="556.9364" height="229.79988">
  <defs id="defs964"></defs>
  <sodipodi:namedview id="base" bordercolor="#666666" inkscape:pageshadow="2" inkscape:window-y="27" fit-margin-left="0" pagecolor="#ffffff" fit-margin-top="0" inkscape:window-maximized="1" inkscape:zoom="0.59738843" inkscape:window-x="0" inkscape:window-height="1016" showgrid="false" borderopacity="1.0" inkscape:current-layer="g4157" inkscape:cx="320.4033" inkscape:cy="-73.215217" fit-margin-right="0" fit-margin-bottom="0" inkscape:window-width="1920" inkscape:pageopacity="0.0" inkscape:document-units="px"></sodipodi:namedview>
  <g id="layer1" inkscape:label="Layer 1" inkscape:groupmode="layer" transform="translate(-226.74311,-575.59004)">
    <g id="g4157" transform="translate(0,1.7497e-5)">
      <g id="g16312" transform="matrix(0.892,0,0,0.85612,54.559,93.515)">
        <g id="g3102" style="fill: #4a0" transform="matrix(0.44371,0,0,0.44371,222.51,261.41)">
          <g id="g3099" style="fill: #4a0">
            <path id="path2383-8" d="M 636.09,1275.2 C 443.47,1004.48 203.74,793.98 -51.66,784.75 c 160.08,300.67 171.02,460.35 689.92,491.42" style="fill: #4a0; fill-rule: evenodd; stroke: #000; stroke-width: 17.401px" inkscape:connector-curvature="0"></path>
          </g>
          <path id="path3271-5" style="fill: #4a0; fill-rule: evenodd; stroke: #000; stroke-width: 17.401px" inkscape:connector-curvature="0" d="m 638.19,1274.8 c 192.62,-270.72 432.33,-481.22 687.75,-490.45 -160.1,300.67 -171.05,460.37 -689.93,491.45"></path>
        </g>
        <g id="layer1-1" style="fill: #e9afdd; fill-rule: evenodd; stroke: #000; stroke-width: 1.1443px" transform="matrix(-8.9942,0,0,7.4289,792.38,437.88)">
          <path id="path2387" style="fill: #e9afdd; stroke-width: .69603px" inkscape:connector-curvature="0" d="M 28.578,50.705 C 17.239,43.983 11.229,32.655 10.976,24.027 c 5.234,0.115 17.81,13.344 18.375,26.389"></path>
          <path id="path2389" style="fill: #e9afdd; stroke-width: .74036px" inkscape:connector-curvature="0" d="m 31.956,51.152 c -5.777,-0.635 -6.493,-27.246 0.073,-33.793 7.131,6.13 7.16,33.364 -0.073,33.793 z"></path>
          <path id="path2385" style="fill: #e9afdd; stroke-width: .69603px" inkscape:connector-curvature="0" d="m 26.531,49.224 c -6.353,-7.876 -7.537,-16.579 -5.559,-26.486 3.864,2.366 11.446,11.907 10.93,28.415"></path>
          <path id="path2383" style="fill: #e9afdd; stroke-width: .69603px" inkscape:connector-curvature="0" d="M 31.886,51.055 C 24.181,40.226 14.592,31.806 4.376,31.437 c 6.403,12.027 6.841,18.414 27.597,19.657"></path>
          <path id="path3267" style="fill: #e9afdd; stroke-width: .69603px" inkscape:connector-curvature="0" d="M 35.278,50.687 C 46.616,43.965 52.627,32.638 52.88,24.009 47.646,24.124 35.07,37.353 34.505,50.398"></path>
          <path id="path3269" style="fill: #e9afdd; stroke-width: .69603px" inkscape:connector-curvature="0" d="M 37.325,49.207 C 43.677,41.33 44.861,32.627 42.884,22.72 39.019,25.087 31.438,34.627 31.954,51.135"></path>
          <path id="path3271" style="fill: #e9afdd; stroke-width: .69603px" inkscape:connector-curvature="0" d="M 31.97,51.037 C 39.675,40.208 49.263,31.788 59.48,31.419 53.076,43.446 52.638,49.834 31.883,51.077"></path>
        </g>
      </g>
    </g>
  </g>
  <metadata id="metadata961">
    <rdf:RDF>
      <cc:Work>
        <dc:format>image/svg+xml</dc:format>
        <dc:type rdf:resource="http://purl.org/dc/dcmitype/StillImage"></dc:type>
        <cc:license rdf:resource="http://creativecommons.org/publicdomain/zero/1.0/"></cc:license>
        <dc:publisher>
          <cc:Agent rdf:about="http://openclipart.org/">
            <dc:title>Openclipart</dc:title>
          </cc:Agent>
        </dc:publisher>
        <dc:title></dc:title>
      </cc:Work>
      <cc:License rdf:about="http://creativecommons.org/publicdomain/zero/1.0/">
        <cc:permits rdf:resource="http://creativecommons.org/ns#Reproduction"></cc:permits>
        <cc:permits rdf:resource="http://creativecommons.org/ns#Distribution"></cc:permits>
        <cc:permits rdf:resource="http://creativecommons.org/ns#DerivativeWorks"></cc:permits>
      </cc:License>
    </rdf:RDF>
  </metadata>
</svg>
