<svg xmlns="http://www.w3.org/2000/svg" id="svg2" version="1.1" width="556.936" height="229.8"><g id="layer1" transform="translate(-226.743 -575.59)"><g id="g4157"><g id="g16312" transform="matrix(.892 0 0 .85612 54.559 93.515)"><g id="g3102" style="fill:#4a0" transform="translate(222.51 261.41) scale(.44371)"><g id="g3099" style="fill:#4a0"><path id="path2383-8" d="M636.09 1275.2C443.47 1004.48 203.74 793.98-51.66 784.75c160.08 300.67 171.02 460.35 689.92 491.42" style="fill:#4a0;fill-rule:evenodd;stroke:#000;stroke-width:17.401px"/></g><path id="path3271-5" style="fill:#4a0;fill-rule:evenodd;stroke:#000;stroke-width:17.401px" d="M638.19 1274.8c192.62-270.72 432.33-481.22 687.75-490.45-160.1 300.67-171.05 460.37-689.93 491.45"/></g><g id="layer1-1" style="fill:#e9afdd;fill-rule:evenodd;stroke:#000;stroke-width:1.1443px" transform="matrix(-8.9942 0 0 7.4289 792.38 437.88)"><path id="path2387" style="fill:#e9afdd;stroke-width:.69603px" d="M28.578 50.705c-11.339-6.722-17.349-18.05-17.602-26.678 5.234.115 17.81 13.344 18.375 26.389"/><path id="path2389" style="fill:#e9afdd;stroke-width:.74036px" d="M31.956 51.152c-5.777-.635-6.493-27.246.073-33.793 7.131 6.13 7.16 33.364-.073 33.793z"/><path id="path2385" style="fill:#e9afdd;stroke-width:.69603px" d="M26.531 49.224c-6.353-7.876-7.537-16.579-5.559-26.486 3.864 2.366 11.446 11.907 10.93 28.415"/><path id="path2383" style="fill:#e9afdd;stroke-width:.69603px" d="M31.886 51.055c-7.705-10.829-17.294-19.249-27.51-19.618 6.403 12.027 6.841 18.414 27.597 19.657"/><path id="path3267" style="fill:#e9afdd;stroke-width:.69603px" d="M35.278 50.687c11.338-6.722 17.349-18.049 17.602-26.678-5.234.115-17.81 13.344-18.375 26.389"/><path id="path3269" style="fill:#e9afdd;stroke-width:.69603px" d="M37.325 49.207c6.352-7.877 7.536-16.58 5.559-26.487-3.865 2.367-11.446 11.907-10.93 28.415"/><path id="path3271" style="fill:#e9afdd;stroke-width:.69603px" d="M31.97 51.037c7.705-10.829 17.293-19.249 27.51-19.618-6.404 12.027-6.842 18.415-27.597 19.658"/></g></g></g></g></svg>